<svg width="512" height="512" viewBox="0 0 512 512" fill="none" xmlns="http://www.w3.org/2000/svg" role="img" aria-label="Cybero agent illustration">
  <defs>
    <linearGradient id="bg-cybero" x1="64" y1="48" x2="448" y2="464" gradientUnits="userSpaceOnUse">
      <stop stop-color="#2dd4bf"/>
      <stop offset="1" stop-color="#38bdf8"/>
    </linearGradient>
    <linearGradient id="orb-cybero" x1="120" y1="120" x2="392" y2="392" gradientUnits="userSpaceOnUse">
      <stop stop-color="white" stop-opacity="0.24"/>
      <stop offset="1" stop-color="white" stop-opacity="0.02"/>
    </linearGradient>
    <filter id="shadow-cybero" x="-20%" y="-20%" width="140%" height="140%">
      <feDropShadow dx="0" dy="18" stdDeviation="22" flood-color="#000000" flood-opacity="0.28"/>
    </filter>
  </defs>

  <rect x="32" y="32" width="448" height="448" rx="88" fill="#081120"/>
  <rect x="40" y="40" width="432" height="432" rx="80" fill="url(#bg-cybero)" opacity="0.9"/>
  <circle cx="380" cy="128" r="72" fill="url(#orb-cybero)"/>
  <circle cx="154" cy="372" r="96" fill="url(#orb-cybero)" opacity="0.7"/>

  <g filter="url(#shadow-cybero)">
    <rect x="96" y="84" width="320" height="344" rx="48" fill="#0A1528" fill-opacity="0.84" stroke="rgba(255,255,255,0.16)"/>
    <rect x="116" y="104" width="280" height="304" rx="38" fill="#0E1C34" fill-opacity="0.96"/>
  </g>

  <g transform="translate(136 120) scale(2)">
    
        <path d="M60 22l28 10v22c0 18-11 31-28 40-17-9-28-22-28-40V32l28-10z" stroke="#dbeafe" stroke-width="5" stroke-linecap="round" stroke-linejoin="round" fill="none"/>
        <path d="M48 60h24M60 48v24" stroke="#dbeafe" stroke-width="5" stroke-linecap="round" stroke-linejoin="round" fill="none"/>
        
  </g>

  <rect x="124" y="344" width="90" height="34" rx="17" fill="white" fill-opacity="0.12"/>
  <text x="169" y="366" text-anchor="middle" font-family="Inter, Arial, sans-serif" font-size="18" font-weight="700" fill="#E6F0FF">CY</text>

  <text x="256" y="414" text-anchor="middle" font-family="Inter, Arial, sans-serif" font-size="34" font-weight="800" fill="white">Cybero</text>
  <text x="256" y="442" text-anchor="middle" font-family="Inter, Arial, sans-serif" font-size="16" font-weight="500" fill="#D7E6FF" opacity="0.8">Cybersecurity Analyst</text>
</svg>