<svg width="512" height="512" viewBox="0 0 512 512" fill="none" xmlns="http://www.w3.org/2000/svg" role="img" aria-label="Planno agent illustration">
  <defs>
    <linearGradient id="bg-planno" x1="64" y1="48" x2="448" y2="464" gradientUnits="userSpaceOnUse">
      <stop stop-color="#34d399"/>
      <stop offset="1" stop-color="#06b6d4"/>
    </linearGradient>
    <linearGradient id="orb-planno" x1="120" y1="120" x2="392" y2="392" gradientUnits="userSpaceOnUse">
      <stop stop-color="white" stop-opacity="0.24"/>
      <stop offset="1" stop-color="white" stop-opacity="0.02"/>
    </linearGradient>
    <filter id="shadow-planno" x="-20%" y="-20%" width="140%" height="140%">
      <feDropShadow dx="0" dy="18" stdDeviation="22" flood-color="#000000" flood-opacity="0.28"/>
    </filter>
  </defs>

  <rect x="32" y="32" width="448" height="448" rx="88" fill="#081120"/>
  <rect x="40" y="40" width="432" height="432" rx="80" fill="url(#bg-planno)" opacity="0.9"/>
  <circle cx="380" cy="128" r="72" fill="url(#orb-planno)"/>
  <circle cx="154" cy="372" r="96" fill="url(#orb-planno)" opacity="0.7"/>

  <g filter="url(#shadow-planno)">
    <rect x="96" y="84" width="320" height="344" rx="48" fill="#0A1528" fill-opacity="0.84" stroke="rgba(255,255,255,0.16)"/>
    <rect x="116" y="104" width="280" height="304" rx="38" fill="#0E1C34" fill-opacity="0.96"/>
  </g>

  <g transform="translate(136 120) scale(2)">
    
        <rect x="26" y="30" width="68" height="56" rx="10" stroke="#dbeafe" stroke-width="5" stroke-linecap="round" stroke-linejoin="round" fill="none"/>
        <path d="M40 46h40M40 60h26M40 74h18" stroke="#dbeafe" stroke-width="5" stroke-linecap="round" stroke-linejoin="round" fill="none"/>
        <path d="M74 68l6 6 12-14" stroke="#dbeafe" stroke-width="5" stroke-linecap="round" stroke-linejoin="round" fill="none"/>
        
  </g>

  <rect x="124" y="344" width="90" height="34" rx="17" fill="white" fill-opacity="0.12"/>
  <text x="169" y="366" text-anchor="middle" font-family="Inter, Arial, sans-serif" font-size="18" font-weight="700" fill="#E6F0FF">PL</text>

  <text x="256" y="414" text-anchor="middle" font-family="Inter, Arial, sans-serif" font-size="34" font-weight="800" fill="white">Planno</text>
  <text x="256" y="442" text-anchor="middle" font-family="Inter, Arial, sans-serif" font-size="16" font-weight="500" fill="#D7E6FF" opacity="0.8">Project Manager</text>
</svg>